<mxfile host="app.diagrams.net" modified="2023-10-22T18:08:22.974Z" agent="Mozilla/5.0 (Windows NT 10.0; Win64; x64) AppleWebKit/537.36 (KHTML, like Gecko) Chrome/118.0.0.0 Safari/537.36" etag="fGqI4q07TTQWBSJSPGq-" version="22.0.6" type="device">
  <diagram id="C5RBs43oDa-KdzZeNtuy" name="Page-1">
    <mxGraphModel dx="2261" dy="746" grid="1" gridSize="10" guides="1" tooltips="1" connect="1" arrows="1" fold="1" page="1" pageScale="1" pageWidth="827" pageHeight="1169" math="0" shadow="0">
      <root>
        <mxCell id="WIyWlLk6GJQsqaUBKTNV-0" />
        <mxCell id="WIyWlLk6GJQsqaUBKTNV-1" parent="WIyWlLk6GJQsqaUBKTNV-0" />
        <mxCell id="WIyWlLk6GJQsqaUBKTNV-7" value="" style="rounded=1;whiteSpace=wrap;html=1;fontSize=12;glass=0;strokeWidth=1;shadow=0;arcSize=8;" parent="WIyWlLk6GJQsqaUBKTNV-1" vertex="1">
          <mxGeometry x="170" y="680" width="530" height="370" as="geometry" />
        </mxCell>
        <mxCell id="WIyWlLk6GJQsqaUBKTNV-8" value="No" style="rounded=0;html=1;jettySize=auto;orthogonalLoop=1;fontSize=11;endArrow=block;endFill=0;endSize=8;strokeWidth=1;shadow=0;labelBackgroundColor=none;edgeStyle=orthogonalEdgeStyle;exitX=0;exitY=0.5;exitDx=0;exitDy=0;entryX=1;entryY=0.5;entryDx=0;entryDy=0;" parent="WIyWlLk6GJQsqaUBKTNV-1" source="9BZWSlT44pvOloCM91AW-10" target="9BZWSlT44pvOloCM91AW-18" edge="1">
          <mxGeometry x="-0.4286" y="15" relative="1" as="geometry">
            <mxPoint as="offset" />
          </mxGeometry>
        </mxCell>
        <mxCell id="WIyWlLk6GJQsqaUBKTNV-9" value="Yes" style="edgeStyle=orthogonalEdgeStyle;rounded=0;html=1;jettySize=auto;orthogonalLoop=1;fontSize=11;endArrow=block;endFill=0;endSize=8;strokeWidth=1;shadow=0;labelBackgroundColor=none;exitX=0.5;exitY=1;exitDx=0;exitDy=0;" parent="WIyWlLk6GJQsqaUBKTNV-1" source="9BZWSlT44pvOloCM91AW-10" target="WIyWlLk6GJQsqaUBKTNV-7" edge="1">
          <mxGeometry y="10" relative="1" as="geometry">
            <mxPoint as="offset" />
            <mxPoint x="670" y="1030" as="sourcePoint" />
            <mxPoint x="600" y="1080" as="targetPoint" />
            <Array as="points">
              <mxPoint x="350" y="1030" />
              <mxPoint x="350" y="1030" />
            </Array>
          </mxGeometry>
        </mxCell>
        <mxCell id="9BZWSlT44pvOloCM91AW-3" style="edgeStyle=orthogonalEdgeStyle;rounded=0;orthogonalLoop=1;jettySize=auto;html=1;entryX=1;entryY=0.5;entryDx=0;entryDy=0;dashed=1;" edge="1" parent="WIyWlLk6GJQsqaUBKTNV-1" source="9BZWSlT44pvOloCM91AW-2" target="9BZWSlT44pvOloCM91AW-5">
          <mxGeometry relative="1" as="geometry" />
        </mxCell>
        <mxCell id="9BZWSlT44pvOloCM91AW-2" value="&lt;h1 style=&quot;&quot;&gt;&lt;font style=&quot;font-size: 15px;&quot;&gt;Punto de entrada&lt;/font&gt;&lt;/h1&gt;&lt;p&gt;Transformamos el archivo de configuración o el origen elegido en ApepParams y un ApepInput válido para el &lt;b&gt;flow&lt;/b&gt;&lt;/p&gt;" style="text;html=1;spacing=5;spacingTop=-20;whiteSpace=wrap;overflow=hidden;rounded=1;fillColor=none;strokeColor=default;perimeterSpacing=0;dashed=1;dashPattern=8 8;" vertex="1" parent="WIyWlLk6GJQsqaUBKTNV-1">
          <mxGeometry x="570" y="55" width="250" height="100" as="geometry" />
        </mxCell>
        <mxCell id="9BZWSlT44pvOloCM91AW-11" style="edgeStyle=orthogonalEdgeStyle;rounded=0;orthogonalLoop=1;jettySize=auto;html=1;exitX=0.5;exitY=1;exitDx=0;exitDy=0;" edge="1" parent="WIyWlLk6GJQsqaUBKTNV-1" source="9BZWSlT44pvOloCM91AW-8" target="9BZWSlT44pvOloCM91AW-9">
          <mxGeometry relative="1" as="geometry" />
        </mxCell>
        <mxCell id="9BZWSlT44pvOloCM91AW-8" value="ApepBuilder.build()" style="rounded=1;whiteSpace=wrap;html=1;fontSize=12;glass=0;strokeWidth=1;shadow=0;" vertex="1" parent="WIyWlLk6GJQsqaUBKTNV-1">
          <mxGeometry x="355" y="730" width="170" height="30" as="geometry" />
        </mxCell>
        <mxCell id="9BZWSlT44pvOloCM91AW-9" value="ApepFlow.execute()" style="rounded=1;whiteSpace=wrap;html=1;fontSize=12;glass=0;strokeWidth=1;shadow=0;" vertex="1" parent="WIyWlLk6GJQsqaUBKTNV-1">
          <mxGeometry x="355" y="800" width="170" height="30" as="geometry" />
        </mxCell>
        <mxCell id="9BZWSlT44pvOloCM91AW-10" value="ApepOutput.metadata.status &lt;br&gt;isOk?" style="rhombus;whiteSpace=wrap;html=1;shadow=0;fontFamily=Helvetica;fontSize=12;align=center;strokeWidth=1;spacing=6;spacingTop=-4;" vertex="1" parent="WIyWlLk6GJQsqaUBKTNV-1">
          <mxGeometry x="370" y="915" width="140" height="80" as="geometry" />
        </mxCell>
        <mxCell id="9BZWSlT44pvOloCM91AW-13" value="ApepOutput" style="rounded=0;html=1;jettySize=auto;orthogonalLoop=1;fontSize=11;endArrow=block;endFill=0;endSize=8;strokeWidth=1;shadow=0;labelBackgroundColor=none;edgeStyle=orthogonalEdgeStyle;exitX=0.5;exitY=1;exitDx=0;exitDy=0;entryX=0.5;entryY=0;entryDx=0;entryDy=0;" edge="1" parent="WIyWlLk6GJQsqaUBKTNV-1" source="9BZWSlT44pvOloCM91AW-9" target="9BZWSlT44pvOloCM91AW-10">
          <mxGeometry x="0.1765" y="35" relative="1" as="geometry">
            <mxPoint as="offset" />
            <mxPoint x="453" y="890" as="sourcePoint" />
            <mxPoint x="473" y="1050" as="targetPoint" />
          </mxGeometry>
        </mxCell>
        <mxCell id="9BZWSlT44pvOloCM91AW-38" style="edgeStyle=orthogonalEdgeStyle;rounded=0;orthogonalLoop=1;jettySize=auto;html=1;exitX=0.5;exitY=0;exitDx=0;exitDy=0;entryX=0.5;entryY=1;entryDx=0;entryDy=0;fillColor=#fad9d5;strokeColor=#ae4132;strokeWidth=3;endArrow=block;endFill=1;" edge="1" parent="WIyWlLk6GJQsqaUBKTNV-1" source="9BZWSlT44pvOloCM91AW-15" target="9BZWSlT44pvOloCM91AW-37">
          <mxGeometry relative="1" as="geometry" />
        </mxCell>
        <mxCell id="9BZWSlT44pvOloCM91AW-15" value="ApepOrchestrator.save(ApepOutput.metadata)" style="rounded=1;whiteSpace=wrap;html=1;fillColor=#dae8fc;strokeColor=#6c8ebf;" vertex="1" parent="WIyWlLk6GJQsqaUBKTNV-1">
          <mxGeometry x="-320" y="925" width="280" height="60" as="geometry" />
        </mxCell>
        <mxCell id="9BZWSlT44pvOloCM91AW-18" value="ApepFlow.callback()" style="rounded=1;whiteSpace=wrap;html=1;fontSize=12;glass=0;strokeWidth=1;shadow=0;" vertex="1" parent="WIyWlLk6GJQsqaUBKTNV-1">
          <mxGeometry x="175" y="940" width="160" height="30" as="geometry" />
        </mxCell>
        <mxCell id="9BZWSlT44pvOloCM91AW-23" value="&lt;b&gt;ApepOutput&lt;/b&gt;" style="edgeStyle=orthogonalEdgeStyle;rounded=0;html=1;jettySize=auto;orthogonalLoop=1;fontSize=11;endArrow=block;endFill=1;endSize=8;strokeWidth=2;shadow=0;labelBackgroundColor=default;strokeColor=#7EA6E0;fillColor=#cce5ff;exitX=0;exitY=0.5;exitDx=0;exitDy=0;entryX=1;entryY=0.5;entryDx=0;entryDy=0;" edge="1" parent="WIyWlLk6GJQsqaUBKTNV-1" source="9BZWSlT44pvOloCM91AW-18" target="9BZWSlT44pvOloCM91AW-15">
          <mxGeometry y="10" relative="1" as="geometry">
            <mxPoint as="offset" />
            <mxPoint x="90" y="960" as="sourcePoint" />
            <mxPoint x="-200" y="910" as="targetPoint" />
            <Array as="points">
              <mxPoint x="100" y="955" />
              <mxPoint x="100" y="955" />
            </Array>
          </mxGeometry>
        </mxCell>
        <mxCell id="9BZWSlT44pvOloCM91AW-24" value="" style="group;verticalAlign=middle;fillColor=#dae8fc;strokeColor=#6c8ebf;rounded=1;glass=0;strokeWidth=1;shadow=0;arcSize=8;" vertex="1" connectable="0" parent="WIyWlLk6GJQsqaUBKTNV-1">
          <mxGeometry x="330" y="25" width="210" height="160" as="geometry" />
        </mxCell>
        <mxCell id="9BZWSlT44pvOloCM91AW-5" value="" style="rounded=1;whiteSpace=wrap;html=1;fillColor=#dae8fc;strokeColor=#6c8ebf;glass=0;strokeWidth=1;shadow=0;arcSize=8;" vertex="1" parent="9BZWSlT44pvOloCM91AW-24">
          <mxGeometry width="210" height="160" as="geometry" />
        </mxCell>
        <mxCell id="WIyWlLk6GJQsqaUBKTNV-3" value="runner_file_to_apep_input()" style="rounded=1;whiteSpace=wrap;html=1;fontSize=12;glass=0;strokeWidth=1;shadow=0;fillColor=#1ba1e2;strokeColor=#006EAF;fontColor=#ffffff;" parent="9BZWSlT44pvOloCM91AW-24" vertex="1">
          <mxGeometry x="20" y="100.00272727272727" width="170" height="43.63636363636363" as="geometry" />
        </mxCell>
        <mxCell id="9BZWSlT44pvOloCM91AW-4" value="create_apep_paramst()" style="rounded=1;whiteSpace=wrap;html=1;fontSize=12;glass=0;strokeWidth=1;shadow=0;fillColor=#1ba1e2;strokeColor=#006EAF;fontColor=#ffffff;" vertex="1" parent="9BZWSlT44pvOloCM91AW-24">
          <mxGeometry x="20" y="50.00090909090909" width="170" height="43.63636363636363" as="geometry" />
        </mxCell>
        <mxCell id="9BZWSlT44pvOloCM91AW-45" value="&lt;b&gt;&lt;font style=&quot;font-size: 14px;&quot;&gt;ApepOrchestrator.init()&lt;/font&gt;&lt;/b&gt;" style="text;html=1;strokeColor=none;fillColor=none;align=center;verticalAlign=middle;whiteSpace=wrap;rounded=0;" vertex="1" parent="9BZWSlT44pvOloCM91AW-24">
          <mxGeometry x="6.25" y="10" width="197.5" height="32" as="geometry" />
        </mxCell>
        <mxCell id="9BZWSlT44pvOloCM91AW-26" value="&lt;b&gt;ApepOutput&lt;/b&gt;" style="rounded=0;html=1;jettySize=auto;orthogonalLoop=1;fontSize=11;endArrow=block;endFill=1;endSize=8;strokeWidth=3;shadow=0;labelBackgroundColor=default;edgeStyle=orthogonalEdgeStyle;exitX=0.5;exitY=1;exitDx=0;exitDy=0;entryX=0.5;entryY=0;entryDx=0;entryDy=0;" edge="1" parent="WIyWlLk6GJQsqaUBKTNV-1" source="9BZWSlT44pvOloCM91AW-5" target="9BZWSlT44pvOloCM91AW-29">
          <mxGeometry x="-0.0909" y="35" relative="1" as="geometry">
            <mxPoint as="offset" />
            <mxPoint x="450" y="420" as="sourcePoint" />
            <mxPoint x="435" y="270" as="targetPoint" />
          </mxGeometry>
        </mxCell>
        <mxCell id="9BZWSlT44pvOloCM91AW-35" value="&lt;font style=&quot;&quot;&gt;&lt;b style=&quot;font-size: 14px;&quot;&gt;ApepFlow&lt;/b&gt;&lt;font style=&quot;font-size: 12px;&quot;&gt; (each)&lt;/font&gt;&lt;/font&gt;" style="text;html=1;strokeColor=none;fillColor=none;align=center;verticalAlign=middle;whiteSpace=wrap;rounded=0;" vertex="1" parent="WIyWlLk6GJQsqaUBKTNV-1">
          <mxGeometry x="373.75" y="690" width="132.5" height="30" as="geometry" />
        </mxCell>
        <mxCell id="9BZWSlT44pvOloCM91AW-36" value="" style="group" vertex="1" connectable="0" parent="WIyWlLk6GJQsqaUBKTNV-1">
          <mxGeometry x="320" y="270" width="260" height="330" as="geometry" />
        </mxCell>
        <mxCell id="9BZWSlT44pvOloCM91AW-29" value="" style="rounded=1;whiteSpace=wrap;html=1;fontSize=12;glass=0;strokeWidth=1;shadow=0;arcSize=8;fillColor=#dae8fc;strokeColor=#6c8ebf;" vertex="1" parent="9BZWSlT44pvOloCM91AW-36">
          <mxGeometry width="230" height="330" as="geometry" />
        </mxCell>
        <mxCell id="9BZWSlT44pvOloCM91AW-30" value="output_to_input_list" style="rounded=1;whiteSpace=wrap;html=1;fillColor=#1ba1e2;fontColor=#ffffff;strokeColor=#006EAF;" vertex="1" parent="9BZWSlT44pvOloCM91AW-36">
          <mxGeometry x="32.5" y="190" width="165" height="60" as="geometry" />
        </mxCell>
        <mxCell id="9BZWSlT44pvOloCM91AW-31" value="save(output.metadata)" style="rounded=1;whiteSpace=wrap;html=1;fillColor=#1ba1e2;fontColor=#ffffff;strokeColor=#006EAF;" vertex="1" parent="9BZWSlT44pvOloCM91AW-36">
          <mxGeometry x="32.5" y="50" width="165" height="60" as="geometry" />
        </mxCell>
        <mxCell id="9BZWSlT44pvOloCM91AW-32" value="run_many_flows()" style="rounded=1;whiteSpace=wrap;html=1;fillColor=#1ba1e2;fontColor=#ffffff;strokeColor=#006EAF;" vertex="1" parent="9BZWSlT44pvOloCM91AW-36">
          <mxGeometry x="32.5" y="260" width="165" height="60" as="geometry" />
        </mxCell>
        <mxCell id="9BZWSlT44pvOloCM91AW-33" value="load_next_step" style="rounded=1;whiteSpace=wrap;html=1;fillColor=#1ba1e2;fontColor=#ffffff;strokeColor=#006EAF;" vertex="1" parent="9BZWSlT44pvOloCM91AW-36">
          <mxGeometry x="32.5" y="120" width="165" height="60" as="geometry" />
        </mxCell>
        <mxCell id="9BZWSlT44pvOloCM91AW-34" value="&lt;b style=&quot;border-color: var(--border-color);&quot;&gt;&lt;font style=&quot;border-color: var(--border-color); font-size: 14px;&quot;&gt;ApepOrchestrator&lt;/font&gt;&lt;/b&gt;&lt;b&gt;&lt;font style=&quot;font-size: 14px;&quot;&gt;.continue()&lt;/font&gt;&lt;/b&gt;" style="text;html=1;strokeColor=none;fillColor=none;align=center;verticalAlign=middle;whiteSpace=wrap;rounded=0;" vertex="1" parent="9BZWSlT44pvOloCM91AW-36">
          <mxGeometry x="16.25" y="10" width="197.5" height="30" as="geometry" />
        </mxCell>
        <mxCell id="9BZWSlT44pvOloCM91AW-37" value="END" style="ellipse;whiteSpace=wrap;html=1;fillColor=#f8cecc;strokeColor=#b85450;" vertex="1" parent="WIyWlLk6GJQsqaUBKTNV-1">
          <mxGeometry x="-215" y="402.5" width="70" height="65" as="geometry" />
        </mxCell>
        <mxCell id="9BZWSlT44pvOloCM91AW-40" value="&lt;b&gt;ApepInput&lt;/b&gt;" style="rounded=0;html=1;jettySize=auto;orthogonalLoop=1;fontSize=11;endArrow=block;endFill=1;endSize=8;strokeWidth=3;shadow=0;labelBackgroundColor=default;edgeStyle=orthogonalEdgeStyle;exitX=0.5;exitY=1;exitDx=0;exitDy=0;entryX=0.5;entryY=0;entryDx=0;entryDy=0;" edge="1" parent="WIyWlLk6GJQsqaUBKTNV-1" source="9BZWSlT44pvOloCM91AW-29" target="WIyWlLk6GJQsqaUBKTNV-7">
          <mxGeometry x="0.175" y="35" relative="1" as="geometry">
            <mxPoint as="offset" />
            <mxPoint x="435" y="640" as="sourcePoint" />
            <mxPoint x="430" y="680" as="targetPoint" />
          </mxGeometry>
        </mxCell>
        <mxCell id="9BZWSlT44pvOloCM91AW-41" value="&lt;b&gt;ApepOutput&lt;/b&gt;" style="rounded=0;html=1;jettySize=auto;orthogonalLoop=1;fontSize=11;endArrow=block;endFill=1;endSize=8;strokeWidth=3;shadow=0;labelBackgroundColor=default;edgeStyle=orthogonalEdgeStyle;exitX=0.513;exitY=1.005;exitDx=0;exitDy=0;entryX=0.75;entryY=0;entryDx=0;entryDy=0;exitPerimeter=0;" edge="1" parent="WIyWlLk6GJQsqaUBKTNV-1" source="WIyWlLk6GJQsqaUBKTNV-7" target="9BZWSlT44pvOloCM91AW-29">
          <mxGeometry x="0.1764" y="35" relative="1" as="geometry">
            <mxPoint as="offset" />
            <mxPoint x="439.5" y="1160" as="sourcePoint" />
            <mxPoint x="439.5" y="1220" as="targetPoint" />
            <Array as="points">
              <mxPoint x="442" y="1070" />
              <mxPoint x="760" y="1070" />
              <mxPoint x="760" y="240" />
              <mxPoint x="493" y="240" />
            </Array>
          </mxGeometry>
        </mxCell>
        <mxCell id="9BZWSlT44pvOloCM91AW-43" value="&lt;h1&gt;Pipeline definition&lt;/h1&gt;&lt;p&gt;Lorem ipsum dolor sit amet, consectetur adipisicing elit, sed do eiusmod tempor incididunt ut labore et dolore magna aliqua.....&lt;/p&gt;" style="text;html=1;strokeColor=none;fillColor=#bac8d3;spacing=5;spacingTop=-20;whiteSpace=wrap;overflow=hidden;rounded=1;" vertex="1" parent="WIyWlLk6GJQsqaUBKTNV-1">
          <mxGeometry x="10" y="45" width="230" height="120" as="geometry" />
        </mxCell>
        <mxCell id="9BZWSlT44pvOloCM91AW-47" style="edgeStyle=orthogonalEdgeStyle;rounded=0;orthogonalLoop=1;jettySize=auto;html=1;exitX=0;exitY=0.5;exitDx=0;exitDy=0;entryX=0.75;entryY=1;entryDx=0;entryDy=0;fillColor=#bac8d3;strokeColor=#23445d;strokeWidth=2;endArrow=oval;endFill=1;startArrow=oval;startFill=1;" edge="1" parent="WIyWlLk6GJQsqaUBKTNV-1" source="9BZWSlT44pvOloCM91AW-33" target="9BZWSlT44pvOloCM91AW-43">
          <mxGeometry relative="1" as="geometry" />
        </mxCell>
        <mxCell id="9BZWSlT44pvOloCM91AW-44" style="edgeStyle=orthogonalEdgeStyle;rounded=0;orthogonalLoop=1;jettySize=auto;html=1;exitX=1;exitY=0.5;exitDx=0;exitDy=0;entryX=0;entryY=0.5;entryDx=0;entryDy=0;endArrow=oval;strokeColor=#23445d;fillColor=#bac8d3;strokeWidth=2;endFill=1;startArrow=oval;startFill=1;" edge="1" parent="WIyWlLk6GJQsqaUBKTNV-1" source="9BZWSlT44pvOloCM91AW-43" target="9BZWSlT44pvOloCM91AW-5">
          <mxGeometry relative="1" as="geometry">
            <mxPoint x="280" y="105" as="targetPoint" />
          </mxGeometry>
        </mxCell>
        <mxCell id="9BZWSlT44pvOloCM91AW-48" style="edgeStyle=orthogonalEdgeStyle;rounded=0;orthogonalLoop=1;jettySize=auto;html=1;exitX=0;exitY=0.75;exitDx=0;exitDy=0;entryX=1;entryY=0.5;entryDx=0;entryDy=0;fillColor=#fad9d5;strokeColor=#ae4132;strokeWidth=3;endArrow=block;endFill=1;" edge="1" parent="WIyWlLk6GJQsqaUBKTNV-1" source="9BZWSlT44pvOloCM91AW-33" target="9BZWSlT44pvOloCM91AW-37">
          <mxGeometry relative="1" as="geometry">
            <mxPoint x="-145" y="935" as="sourcePoint" />
            <mxPoint x="-145" y="465" as="targetPoint" />
          </mxGeometry>
        </mxCell>
        <mxCell id="9BZWSlT44pvOloCM91AW-49" value="ApepParams" style="shape=document;whiteSpace=wrap;html=1;boundedLbl=1;fillColor=#dae8fc;strokeColor=#6c8ebf;dashed=1;dashPattern=1 4;strokeWidth=0;" vertex="1" parent="WIyWlLk6GJQsqaUBKTNV-1">
          <mxGeometry x="220" y="260" width="120" height="30" as="geometry" />
        </mxCell>
        <mxCell id="9BZWSlT44pvOloCM91AW-50" value="ApepParams" style="shape=document;whiteSpace=wrap;html=1;boundedLbl=1;fillColor=#dae8fc;strokeColor=#6c8ebf;dashed=1;dashPattern=1 4;strokeWidth=0;" vertex="1" parent="WIyWlLk6GJQsqaUBKTNV-1">
          <mxGeometry x="65" y="670" width="120" height="30" as="geometry" />
        </mxCell>
      </root>
    </mxGraphModel>
  </diagram>
</mxfile>
